<svg width="921" height="1108" viewBox="0 0 921 1108" fill="none" xmlns="http://www.w3.org/2000/svg">
<path d="M340.608 703.668C334.739 697.406 335.372 688.816 342.384 681.367L415.207 610.48L414.63 609.628C413.558 607.941 412.355 606.34 411.034 604.842C407.841 601.436 404.531 597.904 401.561 594.736L398.603 591.58L398.005 590.941C394.953 587.685 390.386 582.695 386.09 578.111C381.254 572.951 377.111 568.531 373.298 564.746C370.589 562.282 367.125 560.906 363.601 560.894C344.176 563.038 324.601 565.328 305.761 567.622L305.481 567.655L303.498 567.909L303.428 567.977L301.469 568.256C282.489 570.518 262.867 572.854 243.524 575.014C242.801 575.071 242.101 575.178 241.518 575.243L241.343 575.269C240.249 575.479 239.131 575.572 238.006 575.548C235.948 575.628 233.873 575.245 231.927 574.425C229.981 573.606 228.21 572.369 226.74 570.803C224.717 568.65 223.367 565.943 222.878 563.059C222.388 560.175 222.783 557.257 224.007 554.711C225.36 552.149 227.104 549.837 229.178 547.858C240.479 536.858 252.894 524.772 261.895 515.89L266.959 510.961C291.477 486.975 316.772 462.208 342.187 437.876C355.032 424.389 371.402 414.904 389.57 410.419C407.739 405.935 427.033 406.618 445.419 412.396C454.754 415.246 463.762 419.282 472.224 424.407C474.09 425.857 476.402 426.523 478.652 426.259C480.903 425.994 482.908 424.821 484.228 422.996C493.635 413.576 503.217 404.32 512.474 395.381L512.637 395.222C525.029 383.159 537.946 370.801 550.393 357.991C592.467 315.509 644.58 284.676 702.272 268.129C727.062 260.761 751.676 255.363 781.027 249.543C789.073 247.867 795.265 249.047 798.939 252.967C800.92 255.729 802.24 258.904 802.786 262.219C803.332 265.534 803.087 268.89 802.073 271.998C790.232 338.863 764.399 401.569 726.297 455.926C716.583 468.98 705.881 481.215 694.281 492.528C669.313 517.407 643.54 542.495 617.707 567.067C616.899 567.611 616.215 568.32 615.695 569.154C615.175 569.987 614.83 570.928 614.678 571.921C614.527 572.913 614.573 573.938 614.814 574.935C615.054 575.932 615.485 576.881 616.081 577.726C627.62 599.628 632.329 624.298 629.543 648.253C626.023 671.814 614.992 693.122 598.129 708.935C572.765 734.009 546.922 759.045 521.869 783.289L521.66 783.492C509.383 795.442 496.2 808.155 483.39 820.626C481.357 823.378 478.38 825.234 475.002 825.852C471.625 826.47 468.073 825.809 464.999 823.991C463.572 823.172 462.261 822.148 461.108 820.953C459.352 818.82 458.125 816.3 457.538 813.624C456.951 810.948 457.023 808.203 457.748 805.638C464.812 763.054 471.187 722.816 477.271 682.599C477.543 679.848 477.017 677.031 475.758 674.492C471.99 670.305 467.975 665.927 463.116 660.742C459.313 656.685 455.545 652.665 451.014 647.831L449.113 645.802C444.723 641.118 440.122 636.328 435.486 631.381L362.314 702.608C355.031 709.554 346.536 709.992 340.608 703.668ZM593.131 593.361C592.852 593.605 592.553 593.825 592.235 594.017L592.015 594.231C591.605 594.462 591.219 594.733 590.863 595.041L511.095 672.689C509.12 675.063 507.833 677.969 507.368 681.107C502.932 708.224 498.717 735.032 494.108 764.784C493.885 766.756 493.81 768.751 493.882 770.752L493.884 771.062L586.057 681.339C587.397 679.965 588.608 678.466 589.675 676.858L589.885 676.654L590.094 676.451C590.627 675.693 591.217 674.83 591.89 674.008C599.203 662.355 603.186 648.722 603.421 634.546C603.656 620.37 600.133 606.176 593.225 593.461L593.131 593.361ZM458.516 448.527C455.762 446.869 452.907 445.407 449.972 444.151C435.645 437.109 419.793 434.615 404.556 437.005C389.319 439.395 375.432 446.555 364.771 457.516C346.174 475.212 327.742 493.273 309.938 510.748L304.572 515.971C297.278 523.071 289.729 530.42 282.33 537.622C281.508 538.52 280.778 539.504 280.151 540.558L280 540.705C279.767 540.931 279.629 541.281 279.421 541.58C280.385 541.507 281.36 541.546 282.328 541.696L282.386 541.758C282.795 541.815 283.122 541.856 283.461 541.886C296.97 540.279 310.607 538.668 324.245 537.08L326.041 536.864L329.623 536.443C342.805 534.899 355.945 533.349 369.042 531.792C372.565 531.163 375.745 529.409 378.132 526.775C391.503 514.167 404.859 501.022 417.785 488.32L419.643 486.511C425.369 480.937 432.442 473.933 439.12 467.432L458.528 448.54L458.516 448.527ZM549.204 500.448C551.36 503.012 552.623 506.21 552.781 509.5C552.938 512.79 551.98 515.971 550.067 518.503C548.301 520.722 546.373 522.799 544.298 524.718L454.704 611.931L490.879 650.528L675.26 471.048C700.709 446.23 721.452 416.798 736.548 384.086C751.624 351.096 763.602 316.58 772.33 280.977C770.464 281.356 768.808 281.579 767.571 281.777C765.514 282.006 763.493 282.427 761.531 283.034C755.715 284.72 749.782 286.4 744.048 288.078L743.745 288.158C723.242 293.938 702.121 299.936 682 307.285C642.87 321.804 607.366 344.239 577.518 373.305C539.137 411.481 499.518 449.76 461.224 486.773C442.129 505.241 422.372 524.329 402.964 543.221L396.321 549.688L434.856 590.802L525.344 502.718C525.762 502.311 526.204 501.882 526.657 501.441C527.91 499.925 529.434 498.669 531.155 497.733C533.761 495.934 536.958 495.17 540.183 495.575C543.407 495.981 546.452 497.53 548.781 499.95L549.204 500.448Z" fill="#FB8958"/>
<path d="M213.772 708.249L289.186 635.987C291.189 633.962 293.351 632.098 295.653 630.411C298.302 628.689 301.568 628.029 304.866 628.552C308.164 629.074 311.277 630.745 313.646 633.262C316.127 635.692 317.713 638.868 318.106 642.189C318.499 645.51 317.67 648.747 315.776 651.288C314.386 653.139 312.821 654.847 311.099 656.39L155.872 805.129C148.485 811.586 140.311 811.248 134.321 804.446C128.331 797.644 128.381 790.071 135.421 783.325C161.562 758.905 187.679 733.88 213.772 708.249Z" fill="#FB8958"/>
<path d="M294.651 813.884L361.547 749.701C363.662 747.327 366.28 745.456 369.239 744.203C371.853 742.834 374.959 742.506 377.986 743.278C381.014 744.05 383.759 745.871 385.718 748.406C387.98 750.685 389.429 753.625 389.807 756.702C390.185 759.779 389.467 762.792 387.781 765.202C385.906 768.067 383.657 770.65 381.085 772.89L246.504 902.013C238.866 908.722 230.101 908.983 223.844 902.478C217.587 895.972 218.483 886.964 225.529 880.204L294.651 813.884Z" fill="#FB8958"/>
<path d="M218.127 793.643L255.495 757.599C263.062 750.3 272.055 750.286 278.189 756.725C279.554 758.444 280.583 760.397 281.216 762.467C281.849 764.537 282.073 766.682 281.874 768.776C281.676 770.871 281.059 772.871 280.06 774.659C279.061 776.446 277.7 777.986 276.058 779.185L200.442 852.122C199.128 853.755 197.474 855.072 195.583 855.99C193.692 856.909 191.603 857.41 189.447 857.462C187.291 857.514 185.113 857.116 183.048 856.293C180.984 855.47 179.076 854.239 177.445 852.677C171.592 845.943 171.984 837.539 179.575 830.217C192.726 818.144 205.28 806.035 218.127 793.643Z" fill="#FB8958"/>
<path d="M604.878 448.384L604.357 447.826C595.368 438.01 590.306 425.163 590.249 412.023C590.193 398.884 595.148 386.49 604.057 377.484C613.279 368.8 625.623 364.322 638.457 365.002C651.292 365.683 663.603 371.47 672.769 381.129L673.278 381.675C677.875 386.688 681.504 392.536 683.955 398.884C686.407 405.231 687.633 411.953 687.564 418.662C687.575 425.093 686.347 431.401 683.949 437.225C681.551 443.048 678.031 448.272 673.591 452.597C669.031 456.872 663.648 460.14 657.751 462.213C651.854 464.286 645.56 465.124 639.228 464.679C626.352 463.987 614.013 458.134 604.878 448.384V448.384ZM654.031 399.887C649.985 395.575 644.513 393.005 638.815 392.74C633.117 392.474 627.659 394.535 623.637 398.47C619.813 402.552 617.737 408.064 617.838 413.865C617.939 419.667 620.21 425.315 624.182 429.642C628.367 433.882 633.925 436.352 639.669 436.524C642.477 436.625 645.248 436.14 647.814 435.099C650.38 434.058 652.688 432.483 654.598 430.469C658.339 426.456 660.366 421.047 660.261 415.358C660.155 409.668 657.926 404.131 654.031 399.887V399.887Z" fill="#FB8958"/>
</svg>
